<svg xmlns="http://www.w3.org/2000/svg" viewBox="0 0 64 64"><rect width="64" height="64" rx="14" fill="#142B54"/><g transform="translate(3 3) scale(0.58)"><path d="M2 8H26L56 50L26 92H2L32 50Z" fill="#fff"/><path d="M26 8H40L70 50H56Z" fill="#09B8CD"/><path d="M56 50H70L40 92H26Z" fill="#1690B3"/><g fill="none" stroke="#3E63A8" stroke-width="9" stroke-linejoin="round"><path d="M99 50H82M82 50C74 50 72 41 66 38M82 50C74 50 72 59 66 62"/></g><g fill="none" stroke="#fff" stroke-width="1.6" stroke-dasharray="4 3"><path d="M98 50H82M82 50C74 50 72 41 67 38.5M82 50C74 50 72 59 67 61.5"/></g><path d="M60 36C64 24 72 18 84 18" stroke="#09B8CD" stroke-width="7" fill="none" stroke-linecap="round"/><path d="M60 64C64 76 72 82 84 82" stroke="#11B787" stroke-width="7" fill="none" stroke-linecap="round"/><circle cx="88" cy="18" r="10" fill="#09B8CD"/><circle cx="88" cy="18" r="4.5" fill="#142B54"/><circle cx="88" cy="82" r="10" fill="#11B787"/><circle cx="88" cy="82" r="4.5" fill="#142B54"/></g></svg>
